<mxfile host="app.diagrams.net" modified="2021-01-27T14:17:14.622Z" agent="5.0 (Windows NT 10.0; Win64; x64) AppleWebKit/537.36 (KHTML, like Gecko) Chrome/88.0.4324.104 Safari/537.36" etag="I60w6PEL1IloRRzBSfIT" version="14.2.4" type="github">
  <diagram id="_Zq02z6GnDJq8IQ1Dzb6" name="Page-1">
    <mxGraphModel dx="868" dy="450" grid="1" gridSize="10" guides="1" tooltips="1" connect="1" arrows="1" fold="1" page="1" pageScale="1" pageWidth="827" pageHeight="1169" math="0" shadow="0">
      <root>
        <mxCell id="0" />
        <mxCell id="1" parent="0" />
        <mxCell id="VJOzJ-cYpnmJMhtm9gY3-1" value="intset" style="rounded=0;whiteSpace=wrap;html=1;fillColor=#ffe6cc;strokeColor=#d79b00;" vertex="1" parent="1">
          <mxGeometry x="110" y="100" width="140" height="40" as="geometry" />
        </mxCell>
        <mxCell id="VJOzJ-cYpnmJMhtm9gY3-2" value="encoding&lt;br&gt;INTSET_ENC_INT16&amp;nbsp;" style="rounded=0;whiteSpace=wrap;html=1;fillColor=#dae8fc;strokeColor=#6c8ebf;" vertex="1" parent="1">
          <mxGeometry x="110" y="140" width="140" height="40" as="geometry" />
        </mxCell>
        <mxCell id="VJOzJ-cYpnmJMhtm9gY3-3" value="length&lt;br&gt;3" style="rounded=0;whiteSpace=wrap;html=1;fillColor=#dae8fc;strokeColor=#6c8ebf;" vertex="1" parent="1">
          <mxGeometry x="110" y="180" width="140" height="40" as="geometry" />
        </mxCell>
        <mxCell id="VJOzJ-cYpnmJMhtm9gY3-18" style="edgeStyle=orthogonalEdgeStyle;rounded=0;orthogonalLoop=1;jettySize=auto;html=1;exitX=1;exitY=0.5;exitDx=0;exitDy=0;" edge="1" parent="1" source="VJOzJ-cYpnmJMhtm9gY3-4">
          <mxGeometry relative="1" as="geometry">
            <mxPoint x="310" y="240" as="targetPoint" />
          </mxGeometry>
        </mxCell>
        <mxCell id="VJOzJ-cYpnmJMhtm9gY3-4" value="contents" style="rounded=0;whiteSpace=wrap;html=1;fillColor=#dae8fc;strokeColor=#6c8ebf;" vertex="1" parent="1">
          <mxGeometry x="110" y="220" width="140" height="40" as="geometry" />
        </mxCell>
        <mxCell id="VJOzJ-cYpnmJMhtm9gY3-19" value="intset" style="rounded=0;whiteSpace=wrap;html=1;fillColor=#ffe6cc;strokeColor=#d79b00;" vertex="1" parent="1">
          <mxGeometry x="110" y="330" width="140" height="40" as="geometry" />
        </mxCell>
        <mxCell id="VJOzJ-cYpnmJMhtm9gY3-20" value="encoding&lt;br&gt;INTSET_ENC_INT32" style="rounded=0;whiteSpace=wrap;html=1;fillColor=#dae8fc;strokeColor=#6c8ebf;" vertex="1" parent="1">
          <mxGeometry x="110" y="370" width="140" height="40" as="geometry" />
        </mxCell>
        <mxCell id="VJOzJ-cYpnmJMhtm9gY3-21" value="length&lt;br&gt;4" style="rounded=0;whiteSpace=wrap;html=1;fillColor=#dae8fc;strokeColor=#6c8ebf;" vertex="1" parent="1">
          <mxGeometry x="110" y="410" width="140" height="40" as="geometry" />
        </mxCell>
        <mxCell id="VJOzJ-cYpnmJMhtm9gY3-22" style="edgeStyle=orthogonalEdgeStyle;rounded=0;orthogonalLoop=1;jettySize=auto;html=1;exitX=1;exitY=0.5;exitDx=0;exitDy=0;" edge="1" parent="1" source="VJOzJ-cYpnmJMhtm9gY3-23">
          <mxGeometry relative="1" as="geometry">
            <mxPoint x="310" y="470" as="targetPoint" />
          </mxGeometry>
        </mxCell>
        <mxCell id="VJOzJ-cYpnmJMhtm9gY3-23" value="contents" style="rounded=0;whiteSpace=wrap;html=1;fillColor=#dae8fc;strokeColor=#6c8ebf;" vertex="1" parent="1">
          <mxGeometry x="110" y="450" width="140" height="40" as="geometry" />
        </mxCell>
        <mxCell id="VJOzJ-cYpnmJMhtm9gY3-30" value="-5" style="rounded=0;whiteSpace=wrap;html=1;fillColor=#dae8fc;strokeColor=#6c8ebf;" vertex="1" parent="1">
          <mxGeometry x="310" y="220" width="60" height="40" as="geometry" />
        </mxCell>
        <mxCell id="VJOzJ-cYpnmJMhtm9gY3-31" value="10" style="rounded=0;whiteSpace=wrap;html=1;fillColor=#dae8fc;strokeColor=#6c8ebf;" vertex="1" parent="1">
          <mxGeometry x="370" y="220" width="60" height="40" as="geometry" />
        </mxCell>
        <mxCell id="VJOzJ-cYpnmJMhtm9gY3-32" value="20" style="rounded=0;whiteSpace=wrap;html=1;fillColor=#dae8fc;strokeColor=#6c8ebf;" vertex="1" parent="1">
          <mxGeometry x="430" y="220" width="60" height="40" as="geometry" />
        </mxCell>
        <mxCell id="VJOzJ-cYpnmJMhtm9gY3-33" value="-5" style="rounded=0;whiteSpace=wrap;html=1;fillColor=#dae8fc;strokeColor=#6c8ebf;" vertex="1" parent="1">
          <mxGeometry x="310" y="450" width="60" height="40" as="geometry" />
        </mxCell>
        <mxCell id="VJOzJ-cYpnmJMhtm9gY3-34" value="10" style="rounded=0;whiteSpace=wrap;html=1;fillColor=#dae8fc;strokeColor=#6c8ebf;" vertex="1" parent="1">
          <mxGeometry x="370" y="450" width="60" height="40" as="geometry" />
        </mxCell>
        <mxCell id="VJOzJ-cYpnmJMhtm9gY3-35" value="20" style="rounded=0;whiteSpace=wrap;html=1;fillColor=#dae8fc;strokeColor=#6c8ebf;" vertex="1" parent="1">
          <mxGeometry x="430" y="450" width="60" height="40" as="geometry" />
        </mxCell>
        <mxCell id="VJOzJ-cYpnmJMhtm9gY3-36" value="2,147,483,647" style="rounded=0;whiteSpace=wrap;html=1;fillColor=#dae8fc;strokeColor=#6c8ebf;" vertex="1" parent="1">
          <mxGeometry x="490" y="450" width="110" height="40" as="geometry" />
        </mxCell>
      </root>
    </mxGraphModel>
  </diagram>
</mxfile>
